<?xml version="1.0" standalone="no"?><!DOCTYPE svg PUBLIC "-//W3C//DTD SVG 1.1//EN" "http://www.w3.org/Graphics/SVG/1.1/DTD/svg11.dtd"><svg t="1709111146171" class="icon" viewBox="0 0 1024 1024" version="1.1" xmlns="http://www.w3.org/2000/svg" p-id="5120" xmlns:xlink="http://www.w3.org/1999/xlink" width="50" height="50"><path d="M554.666667 273.28a45.44 45.44 0 0 0-77.653334 32.213333 46.08 46.08 0 0 0 13.653334 32.213334 45.44 45.44 0 0 0 32 13.226666 44.586667 44.586667 0 0 0 32-13.866666c8.234667-8.490667 12.949333-19.754667 13.226666-31.573334a46.506667 46.506667 0 0 0-13.226666-32.213333" fill="#1296db" p-id="5121"></path><path d="M568.746667 305.493333A46.997333 46.997333 0 0 1 554.666667 337.066667a44.672 44.672 0 0 1-32.426667 13.866666 45.44 45.44 0 0 1 0-90.88 45.226667 45.226667 0 0 1 45.653333 44.8v0.64" fill="#1296db" p-id="5122"></path><path d="M523.093333 350.933333A44.565333 44.565333 0 0 0 554.666667 337.066667c8.234667-8.490667 12.949333-19.754667 13.226666-31.573334A45.44 45.44 0 1 0 490.666667 337.706667a45.44 45.44 0 0 0 32 13.226666h0.426666z m179.626667 196.053334h-362.666667v-9.173334c0.021333-5.781333 2.218667-11.349333 6.186667-15.573333a21.333333 21.333333 0 0 1 16.426667-7.04h317.44a23.893333 23.893333 0 0 1 16.426666 6.4c4.266667 4.288 6.506667 10.176 6.186667 16.213333v9.173334zM389.12 320L426.666667 226.56a16.64 16.64 0 0 1 6.613333-7.893333c3.264-2.282667 7.104-3.626667 11.093333-3.84h154.026667c4.010667 0.085333 7.893333 1.429333 11.093333 3.84 3.605333 2.624 6.528 6.058667 8.533334 10.026666L653.44 320a17.066667 17.066667 0 0 1-5.973333 17.706667l-100.693334 139.946666a12.608 12.608 0 0 1-5.333333 5.333334 19.754667 19.754667 0 0 1-8.533333 2.56v-91.52H512v92.8h-3.84a19.584 19.584 0 0 1-8.533333-1.706667 15.786667 15.786667 0 0 1-7.253334-5.973333l-100.48-140.16a21.568 21.568 0 0 1-3.413333-9.813334 24.746667 24.746667 0 0 1 1.28-9.813333l-0.64 0.64z m475.733333-194.133333H177.706667a40.32 40.32 0 0 0-40.32 40.32v444.8h768V166.186667a40.533333 40.533333 0 0 0-40.533334-40.32zM554.666667 273.28a45.44 45.44 0 0 0-77.653334 32.213333 46.08 46.08 0 0 0 13.653334 32.213334 45.44 45.44 0 0 0 32 13.226666 44.586667 44.586667 0 0 0 32-13.866666c8.234667-8.490667 12.949333-19.754667 13.226666-31.573334a46.506667 46.506667 0 0 0-13.226666-32.213333z m0 0a45.44 45.44 0 0 0-77.653334 32.213333 46.08 46.08 0 0 0 13.653334 32.213334 45.44 45.44 0 0 0 32 13.226666 44.586667 44.586667 0 0 0 32-13.866666c8.234667-8.490667 12.949333-19.754667 13.226666-31.573334a46.506667 46.506667 0 0 0-13.226666-32.213333z" fill="#1296db" p-id="5123"></path><path d="M137.386667 711.893333a40.746667 40.746667 0 0 0 40.533333 40.533334h202.026667v80.853333h-131.413334a30.293333 30.293333 0 0 0 0 60.586667h545.706667a30.293333 30.293333 0 0 0 0-60.586667h-131.413333v-80.853333h202.026666a40.746667 40.746667 0 0 0 40.533334-40.533334v-40.32h-768v40.32z" fill="#1296db" p-id="5124"></path></svg>