<?xml version="1.0" standalone="no"?><!DOCTYPE svg PUBLIC "-//W3C//DTD SVG 1.1//EN" "http://www.w3.org/Graphics/SVG/1.1/DTD/svg11.dtd"><svg t="1709115260085" class="icon" viewBox="0 0 1026 1024" version="1.1" xmlns="http://www.w3.org/2000/svg" p-id="5995" xmlns:xlink="http://www.w3.org/1999/xlink" width="200.390625" height="200"><path d="M436.046152 723.87126 271.390648 780.41468C255.13386 785.966859 239.543333 770.420753 245.139932 754.119543L301.638935 589.464041C305.636506 577.9155 320.383101 574.495357 329.044504 583.156764L442.397848 696.510106C451.059252 705.171513 447.639108 719.918103 436.046152 723.87126ZM877.422399 288.891125 501.028888 665.284636C489.569186 676.74434 471.358029 677.05526 460.298083 665.995315L354.495706 560.192939C343.43576 549.132993 343.746682 530.877417 355.161968 519.462133L731.555476 143.068621C743.015179 131.608918 761.226337 131.297996 772.286282 142.357942L878.133077 248.204737C889.148609 259.220266 888.837683 277.475839 877.422399 288.891125ZM1010.452679 165.943611 948.401493 228.039212C936.986209 239.454498 918.419712 239.454498 907.004422 228.039212L797.515401 118.550187C786.055697 107.090483 786.055697 88.568405 797.515401 77.108701L859.566581 15.057517C879.643273-5.019172 912.201267-5.019172 932.277953 15.057517L1010.452679 93.276655C1030.529365 113.353345 1030.529365 145.866921 1010.452679 165.943611ZM584.089532 132.364015C584.089532 109.044851 565.167693 89.323501 541.892947 89.323501L64.538561 89.323501C28.871346 89.323501 0 118.194847 0 153.862063L0 959.41702C0 995.084237 28.871346 1024 64.538561 1024L870.093517 1024C905.760734 1024 934.676497 995.084237 934.676497 959.41702L934.676497 481.174286C934.676497 457.855123 914.733062 438.977704 891.413897 438.977704 868.094731 438.977704 849.217314 457.855123 849.217314 481.174286L849.217314 905.760734C849.217314 925.126747 833.537957 940.80611 814.171944 940.80611L118.017177 940.80611C98.695584 940.80611 83.016223 925.126747 83.016223 905.760734L83.016223 209.605969C83.016223 190.284376 98.695584 174.605014 118.017177 174.605014L541.892947 174.605014C565.167693 174.605014 584.089532 155.683178 584.089532 132.364015Z" fill="#9D89BF" p-id="5996"></path></svg>